<?xml version="1.0" encoding="UTF-8" standalone="no"?>
<svg
   viewBox="0 0 445 200"
   width="445"
   height="200"
   version="1.1"
   id="svg8"
   xmlns="http://www.w3.org/2000/svg"
   xmlns:svg="http://www.w3.org/2000/svg">
  <defs
     id="defs1">
    <style
       id="style1">
      .wordmark {
        font: bold 90px &quot;Space Grotesk&quot;;
        fill: #000000;
      }
    </style>
  </defs>
  <rect
     width="100%"
     height="100%"
     fill="#ffffff"
     id="rect1"
     x="0"
     y="0" />
  <rect
     x="4"
     y="4"
     width="192"
     height="192"
     rx="40"
     fill="#0f172a"
     id="rect2" />
  <circle
     cx="100"
     cy="100"
     r="52"
     fill="none"
     stroke="#fb923c"
     stroke-width="5"
     opacity="0.85"
     id="circle2" />
  <circle
     cx="100"
     cy="100"
     r="28"
     fill="none"
     stroke="#fb923c"
     stroke-width="3.5"
     opacity="0.55"
     id="circle3" />
  <line
     x1="100"
     y1="22"
     x2="100"
     y2="44"
     stroke="#fb923c"
     stroke-width="5"
     stroke-linecap="round"
     id="line3" />
  <line
     x1="100"
     y1="156"
     x2="100"
     y2="178"
     stroke="#fb923c"
     stroke-width="5"
     stroke-linecap="round"
     id="line4" />
  <line
     x1="22"
     y1="100"
     x2="44"
     y2="100"
     stroke="#fb923c"
     stroke-width="5"
     stroke-linecap="round"
     id="line5" />
  <line
     x1="156"
     y1="100"
     x2="178"
     y2="100"
     stroke="#fb923c"
     stroke-width="5"
     stroke-linecap="round"
     id="line6" />
  <circle
     cx="100"
     cy="100"
     r="14"
     fill="#0f172a"
     id="circle6" />
  <circle
     cx="100"
     cy="100"
     r="10"
     fill="#fb923c"
     id="circle7" />
  <circle
     cx="100"
     cy="100"
     r="4"
     fill="#ffffff"
     opacity="0.95"
     id="circle8" />
  <path
     d="m 225.94,135 h 11.88 v -26.19 h 25.56 V 98.01 H 237.82 V 82.8 h 27.72 V 72 h -39.6 z m 69.30006,1.26 c 13.32,0 23.4,-8.46 23.4,-22.86 v -1.44 c 0,-14.4 -10.08,-22.86 -23.4,-22.86 -13.32,0 -23.4,8.46 -23.4,22.86 v 1.44 c 0,14.4 10.08,22.86 23.4,22.86 z m 0,-10.08 c -6.93,0 -12.06,-4.68 -12.06,-13.05 v -0.9 c 0,-8.37 5.04,-13.05 12.06,-13.05 7.02,0 12.06,4.68 12.06,13.05 v 0.9 c 0,8.37 -5.13,13.05 -12.06,13.05 z m 54.80995,10.08 c 12.78,0 20.07,-7.47 22.41,-17.1 l -10.98,-2.61 c -0.99,5.76 -4.32,9.63 -11.16,9.63 -6.84,0 -12.06,-4.59 -12.06,-13.05 v -0.9 c 0,-8.46 5.22,-13.05 12.06,-13.05 6.84,0 10.17,4.14 10.89,9.54 l 10.98,-2.34 c -1.89,-9.9 -9.36,-17.28 -22.14,-17.28 -12.96,0 -23.13,8.37 -23.13,22.95 v 1.26 c 0,14.58 10.17,22.95 23.13,22.95 z m 45.63004,0 c 9.36,0 12.15,-5.04 12.96,-7.29 h 1.71 v 0.09 c 0,3.6 3.24,5.94 7.65,5.94 h 7.56 v -9.36 h -3.6 c -1.62,0 -2.52,-0.9 -2.52,-2.7 v -16.65 c 0,-11.16 -7.38,-17.19 -19.08,-17.19 -11.61,0 -17.46,5.85 -19.62,12.6 l 10.44,3.51 c 0.81,-4.05 3.33,-6.93 9,-6.93 5.76,0 8.28,3.06 8.28,7.2 V 108 h -12.24 c -10.08,0 -17.28,4.77 -17.28,13.95 0,9.18 7.2,14.31 16.74,14.31 z m 1.98,-9.18 c -4.86,0 -7.38,-2.25 -7.38,-5.49 0,-3.24 2.52,-5.13 6.75,-5.13 h 11.43 v 0.9 c 0,5.94 -4.5,9.72 -10.8,9.72 z m 36.17993,7.92 h 11.34 V 72 h -11.34 z"
     id="text8"
     style="font-style:normal;font-variant:normal;font-weight:bold;font-stretch:normal;font-size:90px;line-height:normal;font-family:'Space Grotesk'"
     class="wordmark"
     aria-label="Focal" />
</svg>
